<?xml version="1.0" encoding="UTF-8"?>
<!DOCTYPE svg PUBLIC "-//W3C//DTD SVG 1.1//EN" "http://www.w3.org/Graphics/SVG/1.1/DTD/svg11.dtd">
<svg xmlns="http://www.w3.org/2000/svg" version="1.1" width="180px" height="180px" style="shape-rendering:geometricPrecision; text-rendering:geometricPrecision; image-rendering:optimizeQuality; fill-rule:evenodd; clip-rule:evenodd" xmlns:xlink="http://www.w3.org/1999/xlink">
<g><path style="opacity:1" fill="#fbfefd" d="M -0.5,-0.5 C 59.5,-0.5 119.5,-0.5 179.5,-0.5C 179.5,59.5 179.5,119.5 179.5,179.5C 119.5,179.5 59.5,179.5 -0.5,179.5C -0.5,119.5 -0.5,59.5 -0.5,-0.5 Z"/></g>
<g><path style="opacity:1" fill="#07264f" d="M 131.5,35.5 C 135.323,35.1669 136.823,36.8336 136,40.5C 133.46,42.7047 131.293,45.2047 129.5,48C 124.9,49.5833 123.066,48.0833 124,43.5C 126.705,40.9638 129.205,38.2971 131.5,35.5 Z"/></g>
<g><path style="opacity:1" fill="#eaf0f2" d="M 99.5,40.5 C 99.5852,41.9953 98.9185,42.9953 97.5,43.5C 82.7802,40.6107 69.7802,44.1107 58.5,54C 55.0861,58.0942 51.5861,62.2608 48,66.5C 47.6174,65.944 47.1174,65.6107 46.5,65.5C 58.2949,45.107 75.9615,36.7736 99.5,40.5 Z"/></g>
<g><path style="opacity:1" fill="#1dd1ae" d="M 99.5,40.5 C 104.56,42.0144 109.56,43.681 114.5,45.5C 115.32,47.1401 116.153,48.8068 117,50.5C 123.814,55.1429 128.981,61.1429 132.5,68.5C 130.446,68.3653 128.779,69.032 127.5,70.5C 123.5,57.8264 114.833,52.1598 101.5,53.5C 88.095,54.4911 74.7617,55.9911 61.5,58C 55.7928,61.2631 52.4594,66.0964 51.5,72.5C 49.8561,72.2865 48.3561,72.6198 47,73.5C 46.3333,81.8333 46.3333,90.1667 47,98.5C 47.2784,99.4158 47.7784,100.082 48.5,100.5C 51.4488,102.373 53.4488,105.039 54.5,108.5C 52.5082,108.672 50.8415,108.005 49.5,106.5C 48.8182,107.243 48.1515,107.909 47.5,108.5C 41.5351,97.0988 40.0351,85.0988 43,72.5C 43.6701,69.8261 44.8368,67.4927 46.5,65.5C 47.1174,65.6107 47.6174,65.944 48,66.5C 51.5861,62.2608 55.0861,58.0942 58.5,54C 69.7802,44.1107 82.7802,40.6107 97.5,43.5C 98.9185,42.9953 99.5852,41.9953 99.5,40.5 Z"/></g>
<g><path style="opacity:1" fill="#0f2c53" d="M 139.5,50.5 C 145.078,50.5247 146.411,52.6914 143.5,57C 141.129,57.7348 138.795,58.5682 136.5,59.5C 133.911,58.2778 133.077,56.2778 134,53.5C 135.876,52.3913 137.709,51.3913 139.5,50.5 Z"/></g>
<g><path style="opacity:1" fill="#092b56" d="M 127.5,70.5 C 127.5,71.1667 127.5,71.8333 127.5,72.5C 125.283,71.6314 122.95,71.298 120.5,71.5C 118.667,64.3414 114,60.3414 106.5,59.5C 105.198,58.1931 103.865,58.1931 102.5,59.5C 101.334,69.8172 101.168,80.1506 102,90.5C 103.666,93.3788 106.166,94.2121 109.5,93C 110.869,90.7607 110.369,88.9274 108,87.5C 107.5,78.8397 107.334,70.1731 107.5,61.5C 108.822,61.33 109.989,61.6634 111,62.5C 111.499,67.8229 111.666,73.1563 111.5,78.5C 111.539,89.5501 116.873,93.8835 127.5,91.5C 128.561,98.3198 126.894,104.32 122.5,109.5C 120.157,112.33 117.157,114.163 113.5,115C 97.5035,115.5 81.5035,115.667 65.5,115.5C 61.0478,114.377 57.3811,112.044 54.5,108.5C 53.4488,105.039 51.4488,102.373 48.5,100.5C 49.172,99.7326 50.0053,99.0659 51,98.5C 51.3333,94.8333 51.6667,91.1667 52,87.5C 54.1277,84.5422 56.7944,83.8756 60,85.5C 60.4974,88.146 60.6641,90.8127 60.5,93.5C 59.5178,92.8592 58.5178,92.1925 57.5,91.5C 56.1968,94.6447 56.1968,97.6447 57.5,100.5C 58.5852,104.754 61.2518,107.587 65.5,109C 77.4954,109.5 89.4954,109.667 101.5,109.5C 108.644,111.008 114.477,109.008 119,103.5C 120.128,101.655 120.628,99.6547 120.5,97.5C 119.5,97.5 118.5,97.5 117.5,97.5C 100.063,98.9648 82.3966,100.631 64.5,102.5C 63.075,101.078 62.075,99.4113 61.5,97.5C 63.9909,99.1677 66.1575,98.8344 68,96.5C 66.9843,93.393 66.4843,90.0596 66.5,86.5C 67.2223,85.4489 68.2223,84.7822 69.5,84.5C 69.6919,94.5199 74.6919,98.3533 84.5,96C 86.612,95.0943 87.4453,93.5943 87,91.5C 84.7409,90.4643 82.4075,90.4643 80,91.5C 78.3376,91.6125 77.1709,90.9458 76.5,89.5C 79.4465,88.6786 82.4465,88.1786 85.5,88C 87.3757,87.0816 88.3757,85.5816 88.5,83.5C 89.1667,83.5 89.8333,83.5 90.5,83.5C 90.3354,86.5184 90.502,89.5184 91,92.5C 94.1685,96.6356 96.6685,96.469 98.5,92C 96.7885,81.6057 95.9552,71.1057 96,60.5C 93.9235,59.2427 92.0902,59.576 90.5,61.5C 87.8333,61.5 85.1667,61.5 82.5,61.5C 76.4688,62.0637 70.4688,62.8971 64.5,64C 60.5694,66.0421 58.2361,69.2088 57.5,73.5C 56.5655,74.5676 56.2322,75.901 56.5,77.5C 54.9028,78.0905 53.5695,79.0905 52.5,80.5C 51.52,77.9135 51.1866,75.2469 51.5,72.5C 52.4594,66.0964 55.7928,61.2631 61.5,58C 74.7617,55.9911 88.095,54.4911 101.5,53.5C 114.833,52.1598 123.5,57.8264 127.5,70.5 Z"/></g>
<g><path style="opacity:1" fill="#062a53" d="M 114.5,45.5 C 109.56,43.681 104.56,42.0144 99.5,40.5C 75.9615,36.7736 58.2949,45.107 46.5,65.5C 44.8368,67.4927 43.6701,69.8261 43,72.5C 40.0351,85.0988 41.5351,97.0988 47.5,108.5C 48.4411,110.772 49.7745,112.772 51.5,114.5C 51.2402,116.595 50.0736,117.928 48,118.5C 45.6794,117.513 44.0128,115.846 43,113.5C 27.9202,82.0864 35.0869,57.2531 64.5,39C 81.6642,31.2055 98.4975,31.7055 115,40.5C 115.64,42.265 115.473,43.9317 114.5,45.5 Z"/></g>
<g><path style="opacity:1" fill="#f0f3f5" d="M 106.5,59.5 C 106.833,60.1667 107.167,60.8333 107.5,61.5C 107.334,70.1731 107.5,78.8397 108,87.5C 110.369,88.9274 110.869,90.7607 109.5,93C 106.166,94.2121 103.666,93.3788 102,90.5C 101.168,80.1506 101.334,69.8172 102.5,59.5C 103.865,58.1931 105.198,58.1931 106.5,59.5 Z"/></g>
<g><path style="opacity:1" fill="#f1f7f8" d="M 90.5,83.5 C 90.5,76.1667 90.5,68.8333 90.5,61.5C 92.0902,59.576 93.9235,59.2427 96,60.5C 95.9552,71.1057 96.7885,81.6057 98.5,92C 96.6685,96.469 94.1685,96.6356 91,92.5C 90.502,89.5184 90.3354,86.5184 90.5,83.5 Z"/></g>
<g><path style="opacity:1" fill="#eaf1f2" d="M 82.5,61.5 C 83.6843,62.6879 83.6843,63.8545 82.5,65C 77.1181,65.3073 71.7848,65.974 66.5,67C 63.3333,68.8333 60.8333,71.3333 59,74.5C 58.6174,73.944 58.1174,73.6107 57.5,73.5C 58.2361,69.2088 60.5694,66.0421 64.5,64C 70.4688,62.8971 76.4688,62.0637 82.5,61.5 Z"/></g>
<g><path style="opacity:1" fill="#13cfac" d="M 106.5,59.5 C 114,60.3414 118.667,64.3414 120.5,71.5C 116.612,72.7252 113.612,75.0585 111.5,78.5C 111.666,73.1563 111.499,67.8229 111,62.5C 109.989,61.6634 108.822,61.33 107.5,61.5C 107.167,60.8333 106.833,60.1667 106.5,59.5 Z"/></g>
<g><path style="opacity:1" fill="#26ccdb" d="M 132.5,68.5 C 133.5,69.8333 134.5,69.8333 135.5,68.5C 135.795,73.5636 136.462,78.5636 137.5,83.5C 136.518,82.8592 135.518,82.1925 134.5,81.5C 133.824,82.6016 133.158,83.6016 132.5,84.5C 133.535,79.2737 131.868,75.2737 127.5,72.5C 127.5,71.8333 127.5,71.1667 127.5,70.5C 128.779,69.032 130.446,68.3653 132.5,68.5 Z"/></g>
<g><path style="opacity:1" fill="#11cea8" d="M 82.5,61.5 C 85.1667,61.5 87.8333,61.5 90.5,61.5C 90.5,68.8333 90.5,76.1667 90.5,83.5C 89.8333,83.5 89.1667,83.5 88.5,83.5C 88.0339,78.0359 85.0339,75.3692 79.5,75.5C 73.626,75.7085 70.2927,78.7085 69.5,84.5C 68.2223,84.7822 67.2223,85.4489 66.5,86.5C 66.1933,80.3214 62.8599,77.3214 56.5,77.5C 56.2322,75.901 56.5655,74.5676 57.5,73.5C 58.1174,73.6107 58.6174,73.944 59,74.5C 60.8333,71.3333 63.3333,68.8333 66.5,67C 71.7848,65.974 77.1181,65.3073 82.5,65C 83.6843,63.8545 83.6843,62.6879 82.5,61.5 Z"/></g>
<g><path style="opacity:1" fill="#f6f8f9" d="M 120.5,71.5 C 122.95,71.298 125.283,71.6314 127.5,72.5C 131.868,75.2737 133.535,79.2737 132.5,84.5C 132.031,87.6433 130.364,89.9767 127.5,91.5C 116.873,93.8835 111.539,89.5501 111.5,78.5C 113.612,75.0585 116.612,72.7252 120.5,71.5 Z"/></g>
<g><path style="opacity:1" fill="#f4f7f8" d="M 51.5,72.5 C 51.1866,75.2469 51.52,77.9135 52.5,80.5C 53.5695,79.0905 54.9028,78.0905 56.5,77.5C 62.8599,77.3214 66.1933,80.3214 66.5,86.5C 66.4843,90.0596 66.9843,93.393 68,96.5C 66.1575,98.8344 63.9909,99.1677 61.5,97.5C 60.7659,96.2921 60.4326,94.9587 60.5,93.5C 60.6641,90.8127 60.4974,88.146 60,85.5C 56.7944,83.8756 54.1277,84.5422 52,87.5C 51.6667,91.1667 51.3333,94.8333 51,98.5C 50.0053,99.0659 49.172,99.7326 48.5,100.5C 47.7784,100.082 47.2784,99.4158 47,98.5C 46.3333,90.1667 46.3333,81.8333 47,73.5C 48.3561,72.6198 49.8561,72.2865 51.5,72.5 Z"/></g>
<g><path style="opacity:1" fill="#f4f6f7" d="M 88.5,83.5 C 88.3757,85.5816 87.3757,87.0816 85.5,88C 82.4465,88.1786 79.4465,88.6786 76.5,89.5C 77.1709,90.9458 78.3376,91.6125 80,91.5C 82.4075,90.4643 84.7409,90.4643 87,91.5C 87.4453,93.5943 86.612,95.0943 84.5,96C 74.6919,98.3533 69.6919,94.5199 69.5,84.5C 70.2927,78.7085 73.626,75.7085 79.5,75.5C 85.0339,75.3692 88.0339,78.0359 88.5,83.5 Z"/></g>
<g><path style="opacity:1" fill="#0a2a51" d="M 119.5,77.5 C 126.61,76.9037 128.61,79.7371 125.5,86C 117.749,87.0913 115.749,84.258 119.5,77.5 Z"/></g>
<g><path style="opacity:1" fill="#06193e" d="M 76.5,81.5 C 78.604,81.2011 80.604,81.5344 82.5,82.5C 81.5,82.8333 80.5,83.1667 79.5,83.5C 77.9704,83.3601 76.9704,82.6935 76.5,81.5 Z"/></g>
<g><path style="opacity:1" fill="#1dd0b6" d="M 60.5,93.5 C 60.4326,94.9587 60.7659,96.2921 61.5,97.5C 62.075,99.4113 63.075,101.078 64.5,102.5C 61.6755,102.919 59.5088,101.919 58,99.5C 57.6012,99.7284 57.4346,100.062 57.5,100.5C 56.1968,97.6447 56.1968,94.6447 57.5,91.5C 58.5178,92.1925 59.5178,92.8592 60.5,93.5 Z"/></g>
<g><path style="opacity:1" fill="#b2e10e" d="M 117.5,97.5 C 117.262,101.138 115.596,103.971 112.5,106C 108.839,107.593 105.172,108.759 101.5,109.5C 89.4954,109.667 77.4954,109.5 65.5,109C 61.2518,107.587 58.5852,104.754 57.5,100.5C 57.4346,100.062 57.6012,99.7284 58,99.5C 59.5088,101.919 61.6755,102.919 64.5,102.5C 82.3966,100.631 100.063,98.9648 117.5,97.5 Z"/></g>
<g><path style="opacity:1" fill="#12ccb6" d="M 117.5,97.5 C 118.5,97.5 119.5,97.5 120.5,97.5C 120.628,99.6547 120.128,101.655 119,103.5C 114.477,109.008 108.644,111.008 101.5,109.5C 105.172,108.759 108.839,107.593 112.5,106C 115.596,103.971 117.262,101.138 117.5,97.5 Z"/></g>
<g><path style="opacity:1" fill="#11bfeb" d="M 122.5,109.5 C 120.541,113.126 117.874,116.126 114.5,118.5C 99.8473,120.287 85.1806,121.953 70.5,123.5C 70.3893,122.883 70.056,122.383 69.5,122C 71.0614,121.059 72.3947,119.892 73.5,118.5C 70.6303,117.743 67.9636,116.743 65.5,115.5C 81.5035,115.667 97.5035,115.5 113.5,115C 117.157,114.163 120.157,112.33 122.5,109.5 Z"/></g>
<g><path style="opacity:1" fill="#17c8e6" d="M 54.5,108.5 C 57.3811,112.044 61.0478,114.377 65.5,115.5C 67.9636,116.743 70.6303,117.743 73.5,118.5C 72.3947,119.892 71.0614,121.059 69.5,122C 70.056,122.383 70.3893,122.883 70.5,123.5C 67.141,126.529 63.8076,129.529 60.5,132.5C 60.1667,133.5 59.5,134.167 58.5,134.5C 58.665,131.15 58.4983,127.817 58,124.5C 57.6174,123.944 57.1174,123.611 56.5,123.5C 57.5847,118.83 55.918,115.83 51.5,114.5C 49.7745,112.772 48.4411,110.772 47.5,108.5C 48.1515,107.909 48.8182,107.243 49.5,106.5C 50.8415,108.005 52.5082,108.672 54.5,108.5 Z"/></g>
<g><path style="opacity:1" fill="#0773e3" d="M 137.5,83.5 C 134.94,116.894 116.94,132.727 83.5,131C 82.8333,130.333 82.1667,129.667 81.5,129C 78.1667,128.333 74.8333,128.333 71.5,129C 67.2384,132.717 63.0718,136.55 59,140.5C 58.5045,138.527 58.3379,136.527 58.5,134.5C 59.5,134.167 60.1667,133.5 60.5,132.5C 61.8734,132.657 63.2068,132.49 64.5,132C 66.539,129.626 68.8723,127.626 71.5,126C 82.9201,125.917 94.2535,124.917 105.5,123C 109.035,122.337 112.035,120.837 114.5,118.5C 117.874,116.126 120.541,113.126 122.5,109.5C 126.894,104.32 128.561,98.3198 127.5,91.5C 130.364,89.9767 132.031,87.6433 132.5,84.5C 133.158,83.6016 133.824,82.6016 134.5,81.5C 135.518,82.1925 136.518,82.8592 137.5,83.5 Z"/></g>
<g><path style="opacity:1" fill="#07a2e8" d="M 114.5,118.5 C 112.035,120.837 109.035,122.337 105.5,123C 94.2535,124.917 82.9201,125.917 71.5,126C 68.8723,127.626 66.539,129.626 64.5,132C 63.2068,132.49 61.8734,132.657 60.5,132.5C 63.8076,129.529 67.141,126.529 70.5,123.5C 85.1806,121.953 99.8473,120.287 114.5,118.5 Z"/></g>
<g><path style="opacity:1" fill="#072d54" d="M 56.5,123.5 C 57.1174,123.611 57.6174,123.944 58,124.5C 58.4983,127.817 58.665,131.15 58.5,134.5C 58.3379,136.527 58.5045,138.527 59,140.5C 63.0718,136.55 67.2384,132.717 71.5,129C 74.8333,128.333 78.1667,128.333 81.5,129C 82.1667,129.667 82.8333,130.333 83.5,131C 116.94,132.727 134.94,116.894 137.5,83.5C 136.462,78.5636 135.795,73.5636 135.5,68.5C 136.946,67.3871 138.613,67.2204 140.5,68C 147.902,96.1837 139.235,117.85 114.5,133C 104.582,137.398 94.2486,139.065 83.5,138C 81.4799,134.285 78.4799,132.952 74.5,134C 69.5,139 64.5,144 59.5,149C 57.2305,149.758 55.0639,149.591 53,148.5C 52.3333,140.5 52.3333,132.5 53,124.5C 54.0113,123.663 55.1779,123.33 56.5,123.5 Z"/></g>
</svg>
