<?xml version="1.0" encoding="UTF-8"?>
<!DOCTYPE svg PUBLIC "-//W3C//DTD SVG 1.1//EN" "http://www.w3.org/Graphics/SVG/1.1/DTD/svg11.dtd">
<svg xmlns="http://www.w3.org/2000/svg" version="1.1" width="1000px" height="169px" style="shape-rendering:geometricPrecision; text-rendering:geometricPrecision; image-rendering:optimizeQuality; fill-rule:evenodd; clip-rule:evenodd" xmlns:xlink="http://www.w3.org/1999/xlink">
<g><path style="opacity:1" fill="#0f3259" d="M 177.5,10.5 C 183.496,9.33272 185.996,11.6661 185,17.5C 181.869,21.6328 178.369,25.4662 174.5,29C 169.16,29.9888 166.66,27.8222 167,22.5C 170.336,18.3322 173.836,14.3322 177.5,10.5 Z"/></g>
<g><path style="opacity:1" fill="#1ed2ae" d="M 132.5,17.5 C 140.463,19.7111 148.463,21.7111 156.5,23.5C 156.747,27.4107 158.247,30.744 161,33.5C 168.776,37.943 174.443,44.2763 178,52.5C 179.371,54.0414 180.871,55.3747 182.5,56.5C 182.549,61.5388 181.882,61.7055 180.5,57C 178.564,56.187 176.564,55.687 174.5,55.5C 174.66,57.1992 174.494,58.8659 174,60.5C 173.617,59.944 173.117,59.6107 172.5,59.5C 168.992,42.8914 158.659,34.5581 141.5,34.5C 122.409,36.0471 103.409,38.2138 84.5,41C 75.8229,45.1725 70.8229,52.0059 69.5,61.5C 67.0642,59.9829 64.8976,60.3162 63,62.5C 62.3333,73.1667 62.3333,83.8333 63,94.5C 63.7172,95.0442 64.2172,95.7109 64.5,96.5C 65.5609,98.5324 67.2276,99.8658 69.5,100.5C 70.7878,102.739 71.7878,105.072 72.5,107.5C 72.5299,108.497 72.0299,109.164 71,109.5C 68.5034,108.751 66.0034,108.084 63.5,107.5C 56.593,93.2061 54.7596,78.2061 58,62.5C 59.188,58.3867 61.0214,54.72 63.5,51.5C 64.4232,52.3029 65.4232,52.4696 66.5,52C 81.9736,27.7728 104.64,16.9394 134.5,19.5C 133.757,18.8182 133.091,18.1515 132.5,17.5 Z"/></g>
<g><path style="opacity:1" fill="#113257" d="M 191.5,30.5 C 196.254,31.6179 197.754,34.6179 196,39.5C 191.837,42.1124 187.337,43.2791 182.5,43C 180.556,40.8471 180.056,38.3471 181,35.5C 184.422,33.5335 187.922,31.8668 191.5,30.5 Z"/></g>
<g><path style="opacity:1" fill="#0e3259" d="M 156.5,23.5 C 148.463,21.7111 140.463,19.7111 132.5,17.5C 102.052,14.2252 79.0516,25.5585 63.5,51.5C 61.0214,54.72 59.188,58.3867 58,62.5C 54.7596,78.2061 56.593,93.2061 63.5,107.5C 65.0751,111.078 67.0751,114.411 69.5,117.5C 69.0565,123.661 66.2232,124.995 61,121.5C 44.2088,95.4594 43.2088,68.7928 58,41.5C 81.9518,10.0739 112.785,0.573891 150.5,13C 156.544,14.3498 158.544,17.8498 156.5,23.5 Z"/></g>
<g><path style="opacity:0.993" fill="#fefffe" d="M 480.5,34.5 C 485.167,34.5 489.833,34.5 494.5,34.5C 494.5,66.8333 494.5,99.1667 494.5,131.5C 489.833,131.5 485.167,131.5 480.5,131.5C 480.5,99.1667 480.5,66.8333 480.5,34.5 Z"/></g>
<g><path style="opacity:0.993" fill="#fefffe" d="M 512.5,34.5 C 517.167,34.5 521.833,34.5 526.5,34.5C 526.5,66.8333 526.5,99.1667 526.5,131.5C 521.833,131.5 517.167,131.5 512.5,131.5C 512.5,99.1667 512.5,66.8333 512.5,34.5 Z"/></g>
<g><path style="opacity:0.975" fill="#fefffe" d="M 715.5,35.5 C 720.167,35.5 724.833,35.5 729.5,35.5C 729.333,48.1711 729.5,60.8377 730,73.5C 734.619,67.441 740.786,64.441 748.5,64.5C 760.336,64.8308 767.503,70.8308 770,82.5C 770.5,98.8299 770.667,115.163 770.5,131.5C 765.833,131.5 761.167,131.5 756.5,131.5C 756.879,116.127 756.379,100.794 755,85.5C 751.251,76.373 745.084,74.2063 736.5,79C 734.291,80.8734 732.458,83.04 731,85.5C 729.601,100.79 729.101,116.123 729.5,131.5C 724.833,131.5 720.167,131.5 715.5,131.5C 715.5,99.5 715.5,67.5 715.5,35.5 Z"/></g>
<g><path style="opacity:0.917" fill="#fefffe" d="M 680.5,37.5 C 688.097,37.7587 695.43,39.2587 702.5,42C 701.112,45.7166 700.112,49.55 699.5,53.5C 670.351,45.2259 654.351,56.0592 651.5,86C 654.627,115.746 670.627,126.246 699.5,117.5C 700.036,120.846 700.703,124.18 701.5,127.5C 701.182,128.647 700.516,129.481 699.5,130C 687.915,132.88 676.248,133.214 664.5,131C 650.394,125.894 641.56,116.061 638,101.5C 633.817,83.7533 636.817,67.42 647,52.5C 656.288,43.133 667.454,38.133 680.5,37.5 Z"/></g>
<g><path style="opacity:0.991" fill="#fefffe" d="M 332.5,39.5 C 337.167,39.5 341.833,39.5 346.5,39.5C 346.5,52.1667 346.5,64.8333 346.5,77.5C 358.833,77.5 371.167,77.5 383.5,77.5C 383.5,64.8333 383.5,52.1667 383.5,39.5C 388.167,39.5 392.833,39.5 397.5,39.5C 397.5,70.1667 397.5,100.833 397.5,131.5C 392.833,131.5 388.167,131.5 383.5,131.5C 383.5,117.833 383.5,104.167 383.5,90.5C 371.167,90.5 358.833,90.5 346.5,90.5C 346.5,104.167 346.5,117.833 346.5,131.5C 341.833,131.5 337.167,131.5 332.5,131.5C 332.5,100.833 332.5,70.1667 332.5,39.5 Z"/></g>
<g><path style="opacity:1" fill="#f7f9fa" d="M 123.5,76.5 C 123.5,66.1667 123.5,55.8333 123.5,45.5C 126.006,42.9142 128.506,42.9142 131,45.5C 131.333,58.1667 131.667,70.8333 132,83.5C 135.051,85.8504 135.217,88.3504 132.5,91C 129.044,92.123 126.21,91.2896 124,88.5C 123.501,84.5138 123.334,80.5138 123.5,76.5 Z"/></g>
<g><path style="opacity:0.932" fill="#fefffe" d="M 866.5,48.5 C 868.446,53.3958 869.113,58.7291 868.5,64.5C 873.833,64.5 879.167,64.5 884.5,64.5C 884.5,68.5 884.5,72.5 884.5,76.5C 879.167,76.5 873.833,76.5 868.5,76.5C 868.075,89.8935 868.575,103.227 870,116.5C 873.315,120.53 877.482,121.53 882.5,119.5C 883.798,123.715 883.798,127.882 882.5,132C 874.434,134.156 866.767,133.156 859.5,129C 857.348,126.531 855.848,123.698 855,120.5C 854.5,105.837 854.333,91.1705 854.5,76.5C 851.167,76.5 847.833,76.5 844.5,76.5C 844.5,72.5 844.5,68.5 844.5,64.5C 847.833,64.5 851.167,64.5 854.5,64.5C 854.5,60.5 854.5,56.5 854.5,52.5C 858.784,51.7387 862.784,50.4053 866.5,48.5 Z"/></g>
<g><path style="opacity:1" fill="#22d0ab" d="M 123.5,45.5 C 123.5,55.8333 123.5,66.1667 123.5,76.5C 122.609,75.8902 121.609,75.5569 120.5,75.5C 118.976,68.6501 114.642,64.9834 107.5,64.5C 99.5425,65.462 94.8759,69.7953 93.5,77.5C 92.5,78.1667 91.5,78.8333 90.5,79.5C 89.9481,71.6273 85.6148,67.9607 77.5,68.5C 77.1984,65.9407 77.5318,63.6074 78.5,61.5C 81.2345,62.9844 82.7345,61.9844 83,58.5C 85.2336,56.3002 87.7336,54.4669 90.5,53C 97.8009,51.8366 105.134,51.0033 112.5,50.5C 112.715,48.8212 112.048,47.8212 110.5,47.5C 110.611,46.8826 110.944,46.3826 111.5,46C 115.486,45.5012 119.486,45.3345 123.5,45.5 Z"/></g>
<g><path style="opacity:1" fill="#13d1ac" d="M 144.5,43.5 C 154.655,44.5662 161.322,49.8995 164.5,59.5C 158.788,60.5504 154.455,63.5504 151.5,68.5C 151.831,61.1365 151.497,53.8032 150.5,46.5C 149.264,45.7542 147.93,45.4208 146.5,45.5C 145.5,45.1667 144.833,44.5 144.5,43.5 Z"/></g>
<g><path style="opacity:1" fill="#16c7d7" d="M 182.5,56.5 C 182.5,55.8333 182.833,55.5 183.5,55.5C 185.015,62.0768 186.015,68.7434 186.5,75.5C 184.5,74.5 182.5,73.5 180.5,72.5C 179.794,67.1381 177.127,63.1381 172.5,60.5C 172.5,60.1667 172.5,59.8333 172.5,59.5C 173.117,59.6107 173.617,59.944 174,60.5C 174.494,58.8659 174.66,57.1992 174.5,55.5C 176.564,55.687 178.564,56.187 180.5,57C 181.882,61.7055 182.549,61.5388 182.5,56.5 Z"/></g>
<g><path style="opacity:1" fill="#f6f8f9" d="M 164.5,59.5 C 167.279,59.2786 169.946,59.612 172.5,60.5C 177.127,63.1381 179.794,67.1381 180.5,72.5C 180.692,79.1216 178.025,84.1216 172.5,87.5C 157.609,89.9442 150.609,83.6109 151.5,68.5C 154.455,63.5504 158.788,60.5504 164.5,59.5 Z"/></g>
<g><path style="opacity:1" fill="#f8fafa" d="M 69.5,61.5 C 70.2515,64.7473 70.7515,68.0806 71,71.5C 72.7342,69.5494 74.9009,68.5494 77.5,68.5C 85.6148,67.9607 89.9481,71.6273 90.5,79.5C 90.4675,84.6947 90.9675,89.6947 92,94.5C 88.6028,95.9897 85.4361,95.6564 82.5,93.5C 82.5,92.1667 82.5,90.8333 82.5,89.5C 82.665,86.1501 82.4983,82.8168 82,79.5C 77.6091,75.3417 73.9424,76.0084 71,81.5C 70.6667,86.1667 70.3333,90.8333 70,95.5C 68.3005,96.4061 66.4672,96.7394 64.5,96.5C 64.2172,95.7109 63.7172,95.0442 63,94.5C 62.3333,83.8333 62.3333,73.1667 63,62.5C 64.8976,60.3162 67.0642,59.9829 69.5,61.5 Z"/></g>
<g><path style="opacity:0.926" fill="#fefffe" d="M 440.5,63.5 C 454.167,64.2475 462.667,71.2475 466,84.5C 467.262,89.7869 467.596,95.1202 467,100.5C 453.246,101.49 439.412,101.823 425.5,101.5C 425.954,114.424 432.621,121.091 445.5,121.5C 450.462,121.09 455.295,120.09 460,118.5C 466.13,126.259 464.297,130.759 454.5,132C 422.387,135.887 408.22,121.72 412,89.5C 415.102,73.5551 424.602,64.8884 440.5,63.5 Z M 439.5,74.5 C 448.676,76.3541 453.009,82.0208 452.5,91.5C 443.475,91.8315 434.475,91.4982 425.5,90.5C 427.074,82.2702 431.741,76.9368 439.5,74.5 Z"/></g>
<g><path style="opacity:0.918" fill="#fefffe" d="M 570.5,63.5 C 591.72,65.3923 602.053,77.059 601.5,98.5C 599.722,125.766 585.388,136.599 558.5,131C 545.643,124.135 539.309,113.302 539.5,98.5C 539.977,77.7734 550.311,66.1068 570.5,63.5 Z M 567.5,75.5 C 578.076,75.5674 584.243,80.9007 586,91.5C 588.239,102.052 585.739,111.219 578.5,119C 566.517,123.418 559.017,119.252 556,106.5C 554.685,98.1611 555.685,90.1611 559,82.5C 561.464,79.519 564.297,77.1856 567.5,75.5 Z"/></g>
<g><path style="opacity:0.921" fill="#fefffe" d="M 808.5,63.5 C 819.198,63.4299 827.032,68.0966 832,77.5C 833.351,95.4516 834.184,113.452 834.5,131.5C 830.167,131.5 825.833,131.5 821.5,131.5C 821.313,129.436 820.813,127.436 820,125.5C 813.114,132.092 804.948,134.259 795.5,132C 784.113,127.225 779.946,118.725 783,106.5C 785.833,99.6667 790.667,94.8333 797.5,92C 804.808,90.3371 812.141,88.8371 819.5,87.5C 819.412,81.81 816.745,77.9766 811.5,76C 804.079,74.701 797.079,75.8676 790.5,79.5C 789.808,78.9747 789.308,78.3081 789,77.5C 788.548,74.8506 787.714,72.3506 786.5,70C 793.38,65.9508 800.713,63.7842 808.5,63.5 Z M 809.5,99.5 C 812.833,99.5 816.167,99.5 819.5,99.5C 820.111,105.434 819.278,111.1 817,116.5C 811.475,122.192 805.475,122.858 799,118.5C 795.214,108.068 798.714,101.735 809.5,99.5 Z"/></g>
<g><path style="opacity:1" fill="#f4f7f8" d="M 120.5,75.5 C 120.256,78.2626 118.923,80.4293 116.5,82C 112.106,82.3028 107.773,82.9695 103.5,84C 107.081,87.063 110.915,87.2297 115,84.5C 118.92,86.0955 119.42,88.4288 116.5,91.5C 107.211,96.9472 100.045,94.9472 95,85.5C 93.9207,82.9373 93.4207,80.2706 93.5,77.5C 94.8759,69.7953 99.5425,65.462 107.5,64.5C 114.642,64.9834 118.976,68.6501 120.5,75.5 Z"/></g>
<g><path style="opacity:1" fill="#082a52" d="M 162.5,67.5 C 171.745,66.8991 174.411,70.7324 170.5,79C 166.22,81.4772 162.72,80.6439 160,76.5C 158.927,72.9003 159.76,69.9003 162.5,67.5 Z"/></g>
<g><path style="opacity:1" fill="#102447" d="M 104.5,72.5 C 107.665,71.9635 110.331,72.7969 112.5,75C 109.144,76.182 105.81,76.3486 102.5,75.5C 103.193,74.4822 103.859,73.4822 104.5,72.5 Z"/></g>
<g><path style="opacity:1" fill="#082d58" d="M 172.5,59.5 C 172.5,59.8333 172.5,60.1667 172.5,60.5C 169.946,59.612 167.279,59.2786 164.5,59.5C 161.322,49.8995 154.655,44.5662 144.5,43.5C 142.064,41.9829 139.898,42.3162 138,44.5C 137.333,58.1667 137.333,71.8333 138,85.5C 140.251,89.1265 143.418,90.2931 147.5,89C 150.418,85.8352 149.918,83.3352 146,81.5C 145.189,69.4242 145.355,57.4242 146.5,45.5C 147.93,45.4208 149.264,45.7542 150.5,46.5C 151.497,53.8032 151.831,61.1365 151.5,68.5C 150.609,83.6109 157.609,89.9442 172.5,87.5C 173.787,96.6303 171.454,104.63 165.5,111.5C 162.041,115.388 157.708,117.888 152.5,119C 131.503,119.5 110.503,119.667 89.5,119.5C 82.2422,117.709 76.5756,113.709 72.5,107.5C 71.7878,105.072 70.7878,102.739 69.5,100.5C 67.2276,99.8658 65.5609,98.5324 64.5,96.5C 66.4672,96.7394 68.3005,96.4061 70,95.5C 70.3333,90.8333 70.6667,86.1667 71,81.5C 73.9424,76.0084 77.6091,75.3417 82,79.5C 82.4983,82.8168 82.665,86.1501 82.5,89.5C 81.1851,88.5244 79.8518,87.5244 78.5,86.5C 77.513,89.7683 77.1796,93.1016 77.5,96.5C 79.1711,103.673 83.5044,108.507 90.5,111C 106.188,111.753 121.854,111.587 137.5,110.5C 142.511,110.666 147.511,110.499 152.5,110C 159.038,107.301 162.705,102.468 163.5,95.5C 162.041,95.5674 160.708,95.2341 159.5,94.5C 158.584,94.0183 157.584,93.685 156.5,93.5C 133.987,97.314 111.32,99.9807 88.5,101.5C 85.5416,99.5967 83.5416,96.9301 82.5,93.5C 85.4361,95.6564 88.6028,95.9897 92,94.5C 90.9675,89.6947 90.4675,84.6947 90.5,79.5C 91.5,78.8333 92.5,78.1667 93.5,77.5C 93.4207,80.2706 93.9207,82.9373 95,85.5C 100.045,94.9472 107.211,96.9472 116.5,91.5C 119.42,88.4288 118.92,86.0955 115,84.5C 110.915,87.2297 107.081,87.063 103.5,84C 107.773,82.9695 112.106,82.3028 116.5,82C 118.923,80.4293 120.256,78.2626 120.5,75.5C 121.609,75.5569 122.609,75.8902 123.5,76.5C 123.334,80.5138 123.501,84.5138 124,88.5C 126.21,91.2896 129.044,92.123 132.5,91C 135.217,88.3504 135.051,85.8504 132,83.5C 131.667,70.8333 131.333,58.1667 131,45.5C 128.506,42.9142 126.006,42.9142 123.5,45.5C 119.486,45.3345 115.486,45.5012 111.5,46C 110.944,46.3826 110.611,46.8826 110.5,47.5C 103.085,47.6387 95.752,48.472 88.5,50C 83.1844,52.1465 79.851,55.9799 78.5,61.5C 77.5318,63.6074 77.1984,65.9407 77.5,68.5C 74.9009,68.5494 72.7342,69.5494 71,71.5C 70.7515,68.0806 70.2515,64.7473 69.5,61.5C 70.8229,52.0059 75.8229,45.1725 84.5,41C 103.409,38.2138 122.409,36.0471 141.5,34.5C 158.659,34.5581 168.992,42.8914 172.5,59.5 Z M 110.5,47.5 C 112.048,47.8212 112.715,48.8212 112.5,50.5C 105.134,51.0033 97.8009,51.8366 90.5,53C 87.7336,54.4669 85.2336,56.3002 83,58.5C 82.7345,61.9844 81.2345,62.9844 78.5,61.5C 79.851,55.9799 83.1844,52.1465 88.5,50C 95.752,48.472 103.085,47.6387 110.5,47.5 Z"/></g>
<g><path style="opacity:1" fill="#f9fafb" d="M 144.5,43.5 C 144.833,44.5 145.5,45.1667 146.5,45.5C 145.355,57.4242 145.189,69.4242 146,81.5C 149.918,83.3352 150.418,85.8352 147.5,89C 143.418,90.2931 140.251,89.1265 138,85.5C 137.333,71.8333 137.333,58.1667 138,44.5C 139.898,42.3162 142.064,41.9829 144.5,43.5 Z"/></g>
<g><path style="opacity:1" fill="#1bd2b7" d="M 82.5,89.5 C 82.5,90.8333 82.5,92.1667 82.5,93.5C 83.5416,96.9301 85.5416,99.5967 88.5,101.5C 83.6229,102.225 79.9563,100.558 77.5,96.5C 77.1796,93.1016 77.513,89.7683 78.5,86.5C 79.8518,87.5244 81.1851,88.5244 82.5,89.5 Z"/></g>
<g><path style="opacity:1" fill="#b1df0f" d="M 159.5,94.5 C 158.54,102.296 154.207,107.129 146.5,109C 143.305,109.181 140.305,109.681 137.5,110.5C 121.854,111.587 106.188,111.753 90.5,111C 83.5044,108.507 79.1711,103.673 77.5,96.5C 79.9563,100.558 83.6229,102.225 88.5,101.5C 111.32,99.9807 133.987,97.314 156.5,93.5C 157.584,93.685 158.584,94.0183 159.5,94.5 Z"/></g>
<g><path style="opacity:1" fill="#14d1b2" d="M 159.5,94.5 C 160.708,95.2341 162.041,95.5674 163.5,95.5C 162.705,102.468 159.038,107.301 152.5,110C 147.511,110.499 142.511,110.666 137.5,110.5C 140.305,109.681 143.305,109.181 146.5,109C 154.207,107.129 158.54,102.296 159.5,94.5 Z"/></g>
<g><path style="opacity:1" fill="#17d3da" d="M 63.5,107.5 C 66.0034,108.084 68.5034,108.751 71,109.5C 72.0299,109.164 72.5299,108.497 72.5,107.5C 76.5756,113.709 82.2422,117.709 89.5,119.5C 85.7905,121.136 81.7905,121.802 77.5,121.5C 77.5,122.833 77.5,124.167 77.5,125.5C 76.5653,121.232 73.8986,118.565 69.5,117.5C 67.0751,114.411 65.0751,111.078 63.5,107.5 Z"/></g>
<g><path style="opacity:1" fill="#10c1ea" d="M 165.5,111.5 C 165.938,111.435 166.272,111.601 166.5,112C 164.333,114.833 162.167,117.667 160,120.5C 158.259,121.758 156.426,122.758 154.5,123.5C 134.899,126.139 115.232,128.305 95.5,130C 91.6659,132.668 88.3325,135.835 85.5,139.5C 83.5,141.167 81.5,142.833 79.5,144.5C 79.6655,140.486 79.4988,136.486 79,132.5C 77.955,131.627 77.1217,130.627 76.5,129.5C 76.4326,128.041 76.7659,126.708 77.5,125.5C 77.5,124.167 77.5,122.833 77.5,121.5C 81.7905,121.802 85.7905,121.136 89.5,119.5C 110.503,119.667 131.503,119.5 152.5,119C 157.708,117.888 162.041,115.388 165.5,111.5 Z"/></g>
<g><path style="opacity:1" fill="#06a3e8" d="M 154.5,123.5 C 153.106,125.708 151.106,127.208 148.5,128C 131.382,131.798 114.049,133.464 96.5,133C 93.5197,136.955 89.853,139.622 85.5,141C 86.7383,140.31 86.7383,139.81 85.5,139.5C 88.3325,135.835 91.6659,132.668 95.5,130C 115.232,128.305 134.899,126.139 154.5,123.5 Z"/></g>
<g><path style="opacity:1" fill="#0773e1" d="M 180.5,72.5 C 182.5,73.5 184.5,74.5 186.5,75.5C 186.243,104.199 173.243,124.699 147.5,137C 136.461,141.118 125.127,142.285 113.5,140.5C 112.687,139.186 111.687,138.019 110.5,137C 106.167,136.333 101.833,136.333 97.5,137C 91.8333,142.167 86.1667,147.333 80.5,152.5C 79.52,149.914 79.1866,147.247 79.5,144.5C 81.5,142.833 83.5,141.167 85.5,139.5C 86.7383,139.81 86.7383,140.31 85.5,141C 89.853,139.622 93.5197,136.955 96.5,133C 114.049,133.464 131.382,131.798 148.5,128C 151.106,127.208 153.106,125.708 154.5,123.5C 156.426,122.758 158.259,121.758 160,120.5C 162.167,117.667 164.333,114.833 166.5,112C 166.272,111.601 165.938,111.435 165.5,111.5C 171.454,104.63 173.787,96.6303 172.5,87.5C 178.025,84.1216 180.692,79.1216 180.5,72.5 Z"/></g>
<g><path style="opacity:1" fill="#083056" d="M 76.5,129.5 C 77.1217,130.627 77.955,131.627 79,132.5C 79.4988,136.486 79.6655,140.486 79.5,144.5C 79.1866,147.247 79.52,149.914 80.5,152.5C 86.1667,147.333 91.8333,142.167 97.5,137C 101.833,136.333 106.167,136.333 110.5,137C 111.687,138.019 112.687,139.186 113.5,140.5C 125.127,142.285 136.461,141.118 147.5,137C 173.243,124.699 186.243,104.199 186.5,75.5C 186.015,68.7434 185.015,62.0768 183.5,55.5C 186.35,51.9155 189.183,52.2488 192,56.5C 200.328,89.6572 191.161,116.824 164.5,138C 148.962,148.134 131.962,152.134 113.5,150C 111.167,149 109.5,147.333 108.5,145C 106.167,144.333 103.833,144.333 101.5,145C 94.1247,152.009 86.7914,159.009 79.5,166C 75.5245,167.379 72.6912,166.213 71,162.5C 70.3333,152.5 70.3333,142.5 71,132.5C 72.2635,130.393 74.0968,129.393 76.5,129.5 Z"/></g>
</svg>
